# xmcd CD database file
#
# Track frame offsets:
#	150
#	10365
#	41935
#	62300
#	82537
#	100930
#	110237
#	131970
#	150790
#	167057
#	185520
#	209600
#
# Disc length: 3172 seconds
#
# Revision: 0
# Processed by: cddbd v1.5.1PL0 Copyright (c) Steve Scherf et al.
# Submitted via: CDex 1.51
#
DISCID=9b0c620c
DTITLE=Privates - Thrill! Speed! Sex!
DYEAR=1993
DGENRE=JPop
TTITLE0=Time Traveller
TTITLE1=Phantom Line #2
TTITLE2=Love Is Stange!
TTITLE3=Love Street
TTITLE4=Ruffian Blues
TTITLE5=Modesty Blaise
TTITLE6=Sunshine
TTITLE7=Rain Days
TTITLE8=It's You Darlin'
TTITLE9=Secret Hearts
TTITLE10=Feel So Blue
TTITLE11=All Over You
EXTD=YEAR: 1993
EXTT0=
EXTT1=
EXTT2=
EXTT3=
EXTT4=
EXTT5=
EXTT6=
EXTT7=
EXTT8=
EXTT9=
EXTT10=
EXTT11=
PLAYORDER=
